# xmcd CD database file
#
# Track frame offsets:
#	150
#	16007
#	29235
#	49790
#
# Disc length: 865 seconds
#
# Revision: 0
# Processed by: cddbd v1.5PL3 Copyright (c) Steve Scherf et al.
# Submitted via: CDex 1.51
#
DISCID=2b035f04
DTITLE=FINE CHOP - デブDEごめんね！！
DYEAR=2003
DGENRE=Rock
TTITLE0=大空の下で
TTITLE1=スーパパ
TTITLE2=学びし心
TTITLE3=まぶしい季節
EXTD=YEAR: 2003
EXTT0=
EXTT1=
EXTT2=
EXTT3=
PLAYORDER=
